<?xml version="1.0" standalone="no"?>
<!DOCTYPE svg PUBLIC "-//W3C//DTD SVG 20010904//EN"
 "http://www.w3.org/TR/2001/REC-SVG-20010904/DTD/svg10.dtd">
<svg version="1.0" xmlns="http://www.w3.org/2000/svg"
 width="536.000000pt" height="536.000000pt" viewBox="0 0 536.000000 536.000000"
 preserveAspectRatio="xMidYMid meet">
<metadata>
Created by potrace 1.11, written by Peter Selinger 2001-2013
</metadata>
<g transform="translate(0.000000,536.000000) scale(0.100000,-0.100000)"
fill="#000000" stroke="none">
<path d="M4480 4175 c-278 -58 -380 -67 -810 -75 -438 -8 -418 -6 -645 -75
-84 -25 -107 -27 -370 -36 -245 -7 -297 -12 -415 -36 l-135 -28 -485 0 c-511
-1 -562 -5 -756 -51 -56 -13 -200 -40 -319 -59 -227 -38 -381 -73 -452 -105
-55 -24 -73 -61 -84 -174 -12 -124 -11 -578 2 -936 5 -162 14 -531 18 -820 6
-343 13 -538 20 -562 23 -73 -43 -68 941 -68 1225 0 1482 11 2250 96 440 48
459 52 795 149 121 34 256 71 300 81 90 21 139 21 640 7 176 -5 327 -6 336 -1
39 18 43 60 47 448 2 206 -2 535 -8 730 -6 195 -14 590 -17 877 -4 355 -10
530 -17 545 -11 21 -19 23 -106 25 -73 2 -133 12 -260 43 -214 54 -308 59
-470 25z m-1660 -709 c0 -36 -4 -67 -9 -70 -5 -3 -44 -10 -87 -16 -156 -20
-144 -15 -144 -67 l0 -45 93 3 92 4 3 -66 3 -67 -63 -7 c-35 -4 -80 -11 -100
-16 l-38 -10 0 -89 0 -90 -77 0 -76 0 7 168 c7 178 25 404 33 412 4 4 172 14
306 18 l57 2 0 -64z m998 37 c37 -27 62 -80 62 -131 0 -73 -10 -82 -89 -82
l-69 0 1 48 c2 44 0 47 -22 47 -20 0 -30 -11 -50 -49 -21 -41 -26 -67 -29
-151 -5 -111 5 -133 52 -121 35 9 42 36 10 36 -26 0 -26 0 -19 58 10 83 16 89
84 97 66 8 92 -1 117 -41 20 -30 14 -94 -16 -162 -41 -93 -103 -127 -214 -120
-77 5 -109 24 -140 84 -31 57 -29 244 2 325 37 93 87 148 161 176 47 17 126
11 159 -14z m1133 -43 c-2 -36 -4 -66 -5 -67 -1 -2 -57 -8 -124 -15 -104 -10
-122 -15 -122 -29 0 -10 -3 -25 -7 -35 -6 -16 1 -17 85 -12 58 4 94 2 101 -5
14 -14 14 -104 0 -113 -6 -4 -50 -12 -97 -18 -86 -11 -86 -12 -93 -44 l-6 -32
123 0 124 0 0 -69 c0 -39 -3 -72 -8 -74 -4 -3 -94 -8 -200 -12 l-192 -8 0 81
c0 105 20 427 29 472 l7 35 99 6 c55 3 143 5 195 5 l95 -1 -4 -65z m-1847 51
c3 -4 -1 -92 -9 -195 -16 -209 -13 -236 32 -236 61 0 69 24 78 227 3 81 8 163
11 181 l5 33 67 -3 67 -3 -3 -185 c-3 -211 -12 -263 -54 -321 -40 -56 -94 -79
-188 -79 -167 0 -197 71 -166 395 9 94 19 176 21 183 5 14 130 17 139 3z
m1060 1 c3 -4 -2 -93 -10 -198 -16 -207 -13 -234 30 -234 65 0 72 23 81 245 4
88 9 168 12 178 4 15 14 17 71 15 l67 -3 -3 -180 c-3 -212 -13 -269 -53 -325
-41 -57 -95 -80 -189 -80 -167 0 -198 75 -166 400 9 91 19 171 21 178 5 14
130 18 139 4z m-1975 -31 c8 -13 5 -101 -9 -288 -11 -147 -24 -380 -30 -516
-8 -196 -14 -252 -25 -264 -8 -8 -15 -19 -15 -24 0 -13 18 -11 23 4 3 6 6 -9
6 -34 1 -33 -3 -49 -14 -53 -8 -3 -15 -15 -15 -27 0 -18 2 -19 15 -9 13 11 15
-10 15 -178 0 -157 -3 -192 -15 -202 -24 -20 -379 -27 -401 -9 -16 13 -17 41
-11 324 7 322 26 704 52 1055 14 186 17 207 36 223 18 15 44 17 200 17 165 0
179 -1 188 -19z m-673 -32 c23 -16 51 -48 69 -80 l30 -54 3 -709 c2 -562 0
-711 -10 -723 -19 -23 -382 -14 -405 10 -14 14 -15 39 -1 259 8 134 13 245 12
246 -1 2 -36 -66 -78 -151 -46 -96 -88 -168 -110 -190 -65 -65 -149 -72 -203
-18 -20 20 -41 69 -78 179 -27 83 -51 149 -54 146 -3 -2 -8 -106 -11 -229 -4
-150 -10 -229 -18 -237 -7 -7 -40 -11 -79 -10 -49 1 -61 -2 -43 -8 16 -5 -31
-8 -124 -7 -128 2 -150 4 -160 19 -7 12 -1 207 22 705 39 827 40 840 59 858
11 12 45 15 159 15 84 0 143 -4 140 -9 -4 -5 2 -7 12 -4 10 2 29 -5 43 -16
l24 -20 -40 -1 c-22 0 -67 4 -99 10 -33 5 -64 6 -70 2 -6 -4 -46 -7 -88 -7
-43 0 -78 -3 -78 -7 0 -4 74 -8 164 -7 201 0 232 -5 254 -41 10 -15 55 -160
102 -323 46 -163 86 -294 88 -293 1 2 63 146 137 321 73 174 136 319 139 323
4 3 60 8 126 10 66 3 120 7 120 11 0 3 -55 4 -121 2 -129 -3 -130 -3 -90 41
14 15 32 18 117 15 89 -2 105 -5 140 -28z m2078 -958 c3 -5 1 -69 -5 -142 -5
-74 -11 -206 -12 -294 l-2 -160 -80 0 -80 0 3 160 c4 225 20 428 35 437 17 11
135 10 141 -1z m754 -20 c70 -49 100 -163 82 -309 -23 -178 -101 -272 -227
-272 -70 0 -120 32 -156 100 -28 53 -29 59 -25 170 6 171 50 274 138 322 49
27 143 21 188 -11z m-1579 1 c58 -29 76 -63 76 -145 0 -61 -4 -79 -28 -119
-15 -26 -35 -52 -45 -57 -15 -9 -13 -18 27 -95 37 -70 43 -87 32 -100 -14 -17
-95 -66 -108 -66 -4 0 -30 43 -57 95 -27 52 -53 95 -57 95 -32 0 -39 -14 -39
-82 0 -98 -7 -108 -80 -108 -32 0 -62 4 -65 10 -10 17 26 544 39 557 13 13
123 30 211 32 40 1 72 -5 94 -17z m485 -7 c13 -14 30 -51 39 -83 18 -65 87
-440 87 -472 0 -20 -4 -21 -82 -18 l-83 3 -5 55 c-3 30 -9 54 -15 53 -5 -1
-31 -5 -57 -8 -52 -7 -58 -13 -73 -65 l-11 -35 -73 -3 c-41 -2 -78 1 -83 6
-18 18 136 477 188 559 15 23 35 30 102 32 34 1 48 -4 66 -24z m659 11 c55
-23 71 -50 75 -127 l4 -69 -70 0 -71 0 -3 42 c-4 51 -33 67 -44 24 -11 -46 4
-74 59 -109 68 -44 114 -98 123 -143 13 -71 -36 -162 -103 -190 -66 -28 -203
-8 -267 39 -17 13 -17 15 4 58 13 24 27 47 33 50 5 4 32 -4 59 -18 26 -13 61
-23 76 -21 22 2 28 9 30 35 3 29 -2 35 -69 80 -87 57 -110 86 -116 145 -6 51
24 132 62 168 49 46 154 63 218 36z m742 -8 c15 -14 39 -58 58 -111 19 -48 36
-84 40 -81 4 4 7 40 7 79 0 40 3 87 6 104 l7 32 66 -3 66 -3 -2 -50 c-1 -27
-6 -160 -10 -295 l-8 -245 -66 -3 c-75 -3 -77 -2 -107 79 -11 31 -36 94 -54
140 l-33 84 -5 -150 -5 -150 -75 0 -75 0 3 100 c4 131 31 475 38 486 3 5 32 9
64 9 47 0 64 -5 85 -22z"/>
<path d="M2972 3435 c0 -16 2 -22 5 -12 2 9 2 23 0 30 -3 6 -5 -1 -5 -18z"/>
<path d="M4032 3440 c0 -14 2 -19 5 -12 2 6 2 18 0 25 -3 6 -5 1 -5 -13z"/>
<path d="M1811 3381 c-7 -140 -6 -154 8 -159 9 -3 11 1 6 17 -4 15 1 28 20 47
14 14 24 32 21 39 -3 8 6 25 18 38 15 17 20 29 14 35 -6 6 -6 12 1 16 22 14
10 21 -37 22 l-48 0 -3 -55z"/>
<path d="M1955 3430 c-7 -12 2 -12 30 0 19 8 19 9 -2 9 -12 1 -25 -3 -28 -9z"/>
<path d="M1802 3063 c-1 -71 -3 -144 -4 -163 -1 -19 -1 -53 0 -75 2 -34 4 -37
13 -21 6 10 9 34 6 53 -5 29 2 114 17 218 2 11 0 34 -5 52 -4 18 -3 36 2 39
15 9 10 24 -9 24 -17 0 -18 -12 -20 -127z"/>
<path d="M1789 2743 c-2 -24 -2 -43 2 -43 12 0 16 24 9 55 -6 28 -7 28 -11
-12z"/>
<path d="M1785 2663 c-3 -10 -8 -45 -10 -78 -4 -52 -3 -56 5 -25 11 39 22 120
16 120 -2 0 -7 -8 -11 -17z"/>
<path d="M2010 2649 c0 -5 5 -7 10 -4 6 3 10 8 10 11 0 2 -4 4 -10 4 -5 0 -10
-5 -10 -11z"/>
<path d="M2035 2480 c-3 -5 -2 -10 4 -10 5 0 13 5 16 10 3 6 2 10 -4 10 -5 0
-13 -4 -16 -10z"/>
<path d="M2050 2426 c0 -2 7 -7 16 -10 8 -3 12 -2 9 4 -6 10 -25 14 -25 6z"/>
<path d="M1975 2360 c3 -5 13 -10 21 -10 8 0 12 5 9 10 -3 6 -13 10 -21 10 -8
0 -12 -4 -9 -10z"/>
<path d="M2008 2223 c7 -3 16 -2 19 1 4 3 -2 6 -13 5 -11 0 -14 -3 -6 -6z"/>
<path d="M2085 2130 c4 -6 11 -8 16 -5 14 9 11 15 -7 15 -8 0 -12 -5 -9 -10z"/>
<path d="M2030 2079 c0 -5 5 -7 10 -4 6 3 10 8 10 11 0 2 -4 4 -10 4 -5 0 -10
-5 -10 -11z"/>
<path d="M2043 2029 c-7 -9 -9 -20 -3 -29 12 -19 22 -7 18 21 -2 19 -5 20 -15
8z"/>
<path d="M2080 2030 c0 -5 7 -7 15 -4 8 4 15 8 15 10 0 2 -7 4 -15 4 -8 0 -15
-4 -15 -10z"/>
<path d="M1355 3090 c-3 -5 -1 -10 4 -10 6 0 11 5 11 10 0 6 -2 10 -4 10 -3 0
-8 -4 -11 -10z"/>
<path d="M945 2680 c3 -5 8 -10 11 -10 2 0 4 5 4 10 0 6 -5 10 -11 10 -5 0 -7
-4 -4 -10z"/>
<path d="M968 2563 c7 -3 16 -2 19 1 4 3 -2 6 -13 5 -11 0 -14 -3 -6 -6z"/>
<path d="M1030 2450 c0 -5 5 -10 10 -10 6 0 10 5 10 10 0 6 -4 10 -10 10 -5 0
-10 -4 -10 -10z"/>
<path d="M320 2358 c0 -23 -7 -49 -15 -58 -12 -13 -13 -32 -4 -115 6 -55 11
-101 13 -102 2 -2 6 56 10 128 4 72 9 144 13 160 3 18 1 29 -6 29 -6 0 -11
-17 -11 -42z"/>
<path d="M1063 2385 c-8 -22 6 -33 17 -15 13 20 12 30 0 30 -6 0 -13 -7 -17
-15z"/>
<path d="M940 2140 c20 -13 33 -13 25 0 -3 6 -14 10 -23 10 -15 0 -15 -2 -2
-10z"/>
<path d="M318 2004 c-5 -4 -8 -28 -8 -53 0 -32 3 -42 11 -34 5 5 9 29 7 53 -2
23 -6 38 -10 34z"/>
<path d="M3452 2440 c-1 -16 2 -30 8 -30 5 0 10 3 10 8 0 4 3 17 6 30 4 15 2
22 -8 22 -8 0 -15 -12 -16 -30z"/>
<path d="M3453 2345 c0 -22 2 -30 4 -17 2 12 2 30 0 40 -3 9 -5 -1 -4 -23z"/>
<path d="M4216 2356 c-20 -31 -33 -90 -41 -186 -7 -80 3 -126 30 -136 44 -17
77 76 79 221 1 113 -30 159 -68 101z"/>
<path d="M2632 2350 c-44 -10 -45 -11 -50 -77 -4 -50 -3 -55 12 -50 10 4 24 7
31 7 7 0 27 14 44 31 34 34 42 83 15 93 -9 3 -16 6 -17 5 -1 -1 -17 -5 -35 -9z"/>
<path d="M3147 2211 c-22 -70 -22 -71 8 -71 22 0 25 4 24 33 -1 17 -5 46 -8
62 -7 29 -8 28 -24 -24z"/>
<path d="M3279 2020 c-1 -6 -2 -16 -3 -23 0 -7 10 -24 23 -37 l24 -25 -6 25
c-4 14 -7 32 -7 41 0 18 -29 35 -31 19z"/>
</g>
</svg>
